<svg width="19" height="15" viewBox="0 0 19 15" fill="none" xmlns="http://www.w3.org/2000/svg">
<path d="M4.75881 10.2412C5.07611 10.5585 5.59056 10.5585 5.90786 10.2412C6.22516 9.92389 6.22516 9.40944 5.90786 9.09214L4.75881 10.2412ZM1 5.33333L0.425476 4.75881C0.108175 5.07611 0.108175 5.59056 0.425476 5.90786L1 5.33333ZM5.90786 1.57452C6.22516 1.25722 6.22516 0.742777 5.90786 0.425476C5.59056 0.108175 5.07611 0.108175 4.75881 0.425476L5.90786 1.57452ZM1 4.52083C0.551269 4.52083 0.1875 4.8846 0.1875 5.33333C0.1875 5.78206 0.551269 6.14583 1 6.14583V4.52083ZM11.8333 13.1875C11.3846 13.1875 11.0208 13.5513 11.0208 14C11.0208 14.4487 11.3846 14.8125 11.8333 14.8125V13.1875ZM5.90786 9.09214L1.57452 4.75881L0.425476 5.90786L4.75881 10.2412L5.90786 9.09214ZM1.57452 5.90786L5.90786 1.57452L4.75881 0.425476L0.425476 4.75881L1.57452 5.90786ZM1 6.14583H12.9167V4.52083H1V6.14583ZM12.9167 6.14583C14.8612 6.14583 16.4375 7.72216 16.4375 9.66667H18.0625C18.0625 6.8247 15.7586 4.52083 12.9167 4.52083V6.14583ZM16.4375 9.66667C16.4375 11.6112 14.8612 13.1875 12.9167 13.1875V14.8125C15.7586 14.8125 18.0625 12.5086 18.0625 9.66667H16.4375ZM12.9167 13.1875H11.8333V14.8125H12.9167V13.1875Z" fill="#C9CEDF"/>
</svg>
