<svg width="19" height="15" viewBox="0 0 19 15" fill="none" xmlns="http://www.w3.org/2000/svg">
<path d="M14.2412 10.2412C13.9239 10.5585 13.4094 10.5585 13.0921 10.2412C12.7748 9.92389 12.7748 9.40944 13.0921 9.09214L14.2412 10.2412ZM18 5.33333L18.5745 4.75881C18.8918 5.07611 18.8918 5.59056 18.5745 5.90786L18 5.33333ZM13.0921 1.57452C12.7748 1.25722 12.7748 0.742777 13.0921 0.425476C13.4094 0.108175 13.9239 0.108175 14.2412 0.425476L13.0921 1.57452ZM18 4.52083C18.4487 4.52083 18.8125 4.8846 18.8125 5.33333C18.8125 5.78206 18.4487 6.14583 18 6.14583V4.52083ZM7.16667 13.1875C7.6154 13.1875 7.97917 13.5513 7.97917 14C7.97917 14.4487 7.6154 14.8125 7.16667 14.8125V13.1875ZM13.0921 9.09214L17.4255 4.75881L18.5745 5.90786L14.2412 10.2412L13.0921 9.09214ZM17.4255 5.90786L13.0921 1.57452L14.2412 0.425476L18.5745 4.75881L17.4255 5.90786ZM18 6.14583H6.08333V4.52083H18V6.14583ZM6.08333 6.14583C4.13883 6.14583 2.5625 7.72216 2.5625 9.66667H0.9375C0.9375 6.8247 3.24137 4.52083 6.08333 4.52083V6.14583ZM2.5625 9.66667C2.5625 11.6112 4.13883 13.1875 6.08333 13.1875V14.8125C3.24137 14.8125 0.9375 12.5086 0.9375 9.66667H2.5625ZM6.08333 13.1875H7.16667V14.8125H6.08333V13.1875Z" fill="#C9CEDF"/>
</svg>
